<svg width="420" height="150" viewBox="0 0 420 150" role="img" aria-label="Truth World logo" xmlns="http://www.w3.org/2000/svg">
  <defs>
    <linearGradient id="shield" x1="22" y1="14" x2="74" y2="84" gradientUnits="userSpaceOnUse">
      <stop stop-color="#5D4CFF"/>
      <stop offset="1" stop-color="#3F35E8"/>
    </linearGradient>
    <linearGradient id="truth" x1="150" y1="18" x2="370" y2="70" gradientUnits="userSpaceOnUse">
      <stop stop-color="#5D4CFF"/>
      <stop offset="1" stop-color="#3F35E8"/>
    </linearGradient>
  </defs>

  <g transform="translate(8 8) scale(1.32)">
    <path d="M21 34c9 .5 19-1.5 27-7 8 5.5 18 7.5 27 7v18c0 18.5-10.5 32-27 39-16.5-7-27-20.5-27-39V34Z" fill="url(#shield)"/>
    <circle cx="48" cy="54" r="25" fill="none" stroke="#fff" stroke-width="5.5"/>
    <path d="M23 54h50M48 29v50M31 39c5 3 11 4.5 17 4.5S60 42 65 39M31 69c5-3 11-4.5 17-4.5S60 66 65 69" fill="none" stroke="#fff" stroke-width="3.8" stroke-linecap="round"/>
    <path d="M48 29c8 7 12 15.5 12 25s-4 18-12 25c-8-7-12-15.5-12-25s4-18 12-25Z" fill="none" stroke="#fff" stroke-width="3.8"/>
    <path d="M62 39 49.5 59.5 31 73l12.5-20.5L62 39Z" fill="#070A29"/>
    <path d="M62 39 49.5 59.5 43.5 52.5 62 39Z" fill="#FF347A"/>
    <circle cx="48" cy="56" r="5.5" fill="#fff"/>
    <circle cx="48" cy="20" r="4.5" fill="#FF347A"/>
    <path d="M36 13c7.5-5 16.5-5 24 0M29 5c11.5-8 26.5-8 38 0" fill="none" stroke="#FF347A" stroke-width="5" stroke-linecap="round"/>
  </g>

  <text x="152" y="68" fill="url(#truth)" font-family="Inter, Arial Black, Arial, sans-serif" font-size="54" font-weight="950" letter-spacing="0">TRUTH</text>
  <text x="152" y="120" fill="#070A29" font-family="Inter, Arial Black, Arial, sans-serif" font-size="54" font-weight="950" letter-spacing="0">WORLD</text>
  <circle cx="386" cy="107" r="8" fill="#23C28A"/>
</svg>
