<svg width="180" height="180" viewBox="0 0 180 180" role="img" aria-label="Truth World app icon" xmlns="http://www.w3.org/2000/svg">
  <defs>
    <linearGradient id="bg" x1="24" x2="156" y1="18" y2="162" gradientUnits="userSpaceOnUse">
      <stop stop-color="#594CF7"/>
      <stop offset="1" stop-color="#3324D6"/>
    </linearGradient>
    <filter id="shadow" x="-20%" y="-20%" width="140%" height="140%">
      <feDropShadow dx="0" dy="10" stdDeviation="10" flood-color="#10101D" flood-opacity=".18"/>
    </filter>
  </defs>
  <rect width="180" height="180" rx="40" fill="url(#bg)"/>
  <g filter="url(#shadow)" transform="translate(34 24) scale(1.18)">
    <path d="M18 48c18 5 44 5 62 0v39c0 18-12 30-31 38-19-8-31-20-31-38V48Z" fill="#fff"/>
    <circle cx="49" cy="80" r="30" fill="none" stroke="#4D3FF3" stroke-width="5"/>
    <path d="M19 80h60M49 50v60M29 61c12 8 28 8 40 0M29 99c12-8 28-8 40 0" stroke="#4D3FF3" stroke-width="4" stroke-linecap="round"/>
    <path d="M41 88 73 56 58 96 25 109Z" fill="#FF3F7F"/>
    <path d="M41 88 25 109 73 56Z" fill="#10101D"/>
    <circle cx="49" cy="80" r="9" fill="#fff"/>
    <path d="M49 38v-9" stroke="#fff" stroke-width="7" stroke-linecap="round"/>
    <path d="M31 25c12-12 36-12 48 0M20 13c19-18 60-18 79 0" fill="none" stroke="#FF3F7F" stroke-width="9" stroke-linecap="round"/>
  </g>
  <circle cx="144" cy="143" r="12" fill="#23C28A"/>
</svg>
